<?xml version="1.0" encoding="UTF-8"?><svg id="a" xmlns="http://www.w3.org/2000/svg" viewBox="0 0 499.11 195.14"><defs><style>.b{letter-spacing:.21em;}.c{letter-spacing:.21em;}.d{fill:none;stroke:#fff;stroke-width:3px;}.d,.e{stroke-miterlimit:10;}.e{stroke:#000;}.f{letter-spacing:.18em;}.g{font-family:ProductSans-Bold, Product Sans;font-size:133px;}.h{font-family:Montserrat-Regular, Montserrat;font-size:23px;}.i{letter-spacing:.2em;}</style></defs><text class="g" transform="translate(151.1 155.7)"><tspan x="0" y="0">IEDC</tspan></text><text class="h" transform="translate(154.3 189.18)"><tspan class="b" x="0" y="0">GPC </tspan><tspan class="f" x="75.81" y="0">K</tspan><tspan class="c" x="96.28" y="0">ALAMASSE</tspan><tspan class="i" x="262.84" y="0">R</tspan><tspan class="c" x="283.98" y="0">Y</tspan></text><g><g><rect x="66.49" y="184.65" width="9.83" height="3.64"/><ellipse cx="71.85" cy="104.43" rx="41.39" ry="43.27"/><polygon points="79.06 128.25 21.08 127.35 49.28 78.49 79.06 128.25"/><rect x="53.13" y="133.8" width="39.28" height="36.3"/><path d="M75.35,123.35h29.65c1.53,0,2.78,1.25,2.78,2.78v.8c0,4.33-3.51,7.84-7.84,7.84h-24.59c-1.53,0-2.78-1.25-2.78-2.78v-5.86c0-1.53,1.25-2.78,2.78-2.78Z" transform="translate(-66.9 118.37) rotate(-51.16)"/><rect x="52.79" y="172.46" width="39.45" height="6.24"/><path d="M52.61,180.82h39.81v1.97c0,1.66-1.34,3-3,3H55.61c-1.66,0-3-1.34-3-3v-1.97h0Z"/><rect x="80.79" y="175.58" width="3.64" height="9.29"/><rect x="36.18" y="118.18" width="41.4" height="35.49" rx="7" ry="7"/><path d="M73.1,150.75v7.94h-19.88c0-2.81-2.27-5.08-5.08-5.08v-2.86h24.96Z"/><path d="M44.92,126.33v3.51h-8.8c0-1.24-1.01-2.25-2.25-2.25v-1.26h11.04Z"/><path d="M30.97,105.47l-2.77,11.86c-.18,.79,.24,1.62,1.05,1.85,.76,.21,1.66-.26,1.85-1.05l2.77-11.86c.18-.79-.24-1.62-1.05-1.85-.76-.21-1.66,.26-1.85,1.05h0Z"/><path d="M89.88,150.31l12.29-16.42c.49-.65,.11-1.68-.54-2.05-.77-.45-1.57-.11-2.05,.54l-12.29,16.42c-.49,.65-.11,1.68,.54,2.05,.77,.45,1.57,.11,2.05-.54h0Z"/></g><circle class="d" cx="72.78" cy="87.89" r="4.64"/><circle class="d" cx="91.73" cy="112.23" r="4.64"/><circle class="d" cx="53.13" cy="111.8" r="4.64"/><line class="d" x1="73.1" y1="91.26" x2="73.1" y2="170.1"/><path class="d" d="M53.13,116.44c-.38,4.22-.47,7.79-.45,10.53,.02,3.71,.22,5.31,1.37,6.44,1.73,1.7,3.67,.4,5.7,1.48,3.43,1.82,3.05,8.26,3.02,20.67,0,3.33,0,8.35,.14,14.54"/><path class="d" d="M91.58,116.44c.37,4.22,.45,7.79,.44,10.53-.02,3.71-.21,5.31-1.32,6.44-1.67,1.7-3.55,.4-5.5,1.48-3.31,1.82-2.94,8.26-2.91,20.67,0,3.33,0,8.35-.13,14.54"/><rect class="e" x=".5" y="87.33" width="17.79" height="1.39" rx=".7" ry=".7"/><rect class="e" x="15.64" y="49.17" width="17.79" height="1.39" rx=".7" ry=".7" transform="translate(42.45 -2.75) rotate(45)"/><rect class="e" x="62.95" y="40.28" width="17.79" height="1.39" rx=".7" ry=".7" transform="translate(112.82 -30.87) rotate(90)"/><rect class="e" x="125.41" y="88.09" width="17.79" height="1.39" rx=".7" ry=".7" transform="translate(268.6 177.58) rotate(-180)"/><rect class="e" x="110.26" y="49.93" width="17.79" height="1.39" rx=".7" ry=".7" transform="translate(239.21 2.17) rotate(135)"/></g></svg>